<svg width="19" height="15" viewBox="0 0 19 15" fill="none" xmlns="http://www.w3.org/2000/svg">
<path d="M18.462 1.77588C17.7676 2.07958 17.033 2.28165 16.281 2.37587C17.0733 1.9058 17.6657 1.16147 17.946 0.283875C17.2041 0.723815 16.3924 1.03362 15.546 1.19988C15.027 0.646431 14.3537 0.261725 13.6134 0.0956728C12.8731 -0.0703796 12.1 -0.010116 11.3943 0.268646C10.6887 0.547409 10.0831 1.0318 9.65616 1.65898C9.22921 2.28616 9.00061 3.02717 9 3.78587C8.99715 4.07592 9.02667 4.36537 9.088 4.64887C7.58252 4.57483 6.10961 4.18393 4.76553 3.50173C3.42145 2.81952 2.23646 1.86136 1.288 0.689873C0.801091 1.52247 0.650314 2.50952 0.866449 3.44951C1.08258 4.3895 1.64933 5.21156 2.451 5.74788C1.85188 5.73187 1.2654 5.57205 0.741 5.28188V5.32388C0.741594 6.19791 1.04347 7.04502 1.59577 7.72246C2.14806 8.39989 2.917 8.86623 3.773 9.04287C3.44933 9.1283 3.11574 9.17034 2.781 9.16787C2.54036 9.17205 2.29997 9.15026 2.064 9.10287C2.30869 9.85382 2.78007 10.5105 3.41329 10.9825C4.04651 11.4546 4.81045 11.7188 5.6 11.7389C4.26007 12.7871 2.60721 13.3554 0.906 13.3529C0.603178 13.3546 0.300558 13.3369 0 13.2999C1.73043 14.4156 3.74707 15.0061 5.806 14.9999C7.2231 15.0094 8.62799 14.7374 9.93909 14.1996C11.2502 13.6618 12.4414 12.8688 13.4436 11.8669C14.4457 10.8649 15.2389 9.67383 15.7769 8.36282C16.315 7.05181 16.5873 5.64698 16.578 4.22987C16.578 4.06287 16.572 3.90088 16.564 3.74088C17.3109 3.20674 17.9541 2.54084 18.462 1.77588Z" fill="#06104A"/>
</svg>
