<svg width="15" height="15" viewBox="0 0 15 15" fill="none" xmlns="http://www.w3.org/2000/svg">
<path d="M3.354 4.68799H0V15.001H3.354V4.68799Z" fill="#06104A"/>
<path d="M12.4865 4.80801C12.4505 4.79701 12.4175 4.78502 12.3795 4.77402C12.3415 4.76302 12.2895 4.75502 12.2435 4.74802C12.0461 4.70762 11.8451 4.68718 11.6435 4.68701C10.9328 4.71914 10.2388 4.91357 9.61476 5.25539C8.99075 5.59721 8.45327 6.07734 8.04352 6.65901V4.68701H4.68652V14.999H8.04053V9.37401C8.04053 9.37401 10.5755 5.84301 11.6405 8.43701V15H14.9935V8.04102C14.9924 7.30067 14.7456 6.58163 14.2919 5.99657C13.8382 5.41151 13.2033 4.99349 12.4865 4.80801Z" fill="#06104A"/>
<path d="M1.641 3.282C2.5473 3.282 3.282 2.5473 3.282 1.641C3.282 0.734701 2.5473 0 1.641 0C0.734701 0 0 0.734701 0 1.641C0 2.5473 0.734701 3.282 1.641 3.282Z" fill="#06104A"/>
</svg>
