<svg width="15" height="15" viewBox="0 0 15 15" fill="none" xmlns="http://www.w3.org/2000/svg">
<path d="M10.313 0H4.688C3.44467 0 2.25225 0.493913 1.37308 1.37308C0.493913 2.25225 0 3.44467 0 4.688L0 10.313C0.00026518 11.5562 0.494295 12.7483 1.37344 13.6273C2.25258 14.5062 3.44484 15 4.688 15H10.313C11.556 14.9997 12.748 14.5058 13.6269 13.6269C14.5058 12.748 14.9997 11.556 15 10.313V4.688C15 3.44484 14.5062 2.25258 13.6273 1.37344C12.7483 0.494295 11.5562 0.00026518 10.313 0V0ZM13.594 10.313C13.5929 11.1828 13.2469 12.0168 12.6318 12.6318C12.0168 13.2469 11.1828 13.5929 10.313 13.594H4.688C3.81815 13.5929 2.98423 13.2469 2.36915 12.6318C1.75407 12.0168 1.40806 11.1828 1.407 10.313V4.688C1.40779 3.81798 1.75369 2.9838 2.3688 2.36851C2.98391 1.75321 3.81798 1.40706 4.688 1.406H10.313C11.1828 1.40706 12.0168 1.75307 12.6318 2.36815C13.2469 2.98323 13.5929 3.81715 13.594 4.687V10.313Z" fill="#06104A"/>
<path d="M7.50001 3.75C6.75833 3.75 6.0333 3.96993 5.41662 4.38199C4.79993 4.79404 4.31928 5.37972 4.03545 6.06494C3.75162 6.75016 3.67736 7.50415 3.82206 8.23158C3.96675 8.95901 4.3239 9.62721 4.84835 10.1517C5.3728 10.6761 6.04099 11.0333 6.76842 11.1779C7.49585 11.3226 8.24984 11.2484 8.93506 10.9646C9.62029 10.6807 10.206 10.2001 10.618 9.58339C11.0301 8.9667 11.25 8.24168 11.25 7.5C11.25 6.50544 10.8549 5.5516 10.1517 4.84834C9.4484 4.14508 8.49457 3.75 7.50001 3.75ZM7.50001 9.84399C7.03641 9.84399 6.58321 9.70652 6.19774 9.44896C5.81228 9.1914 5.51184 8.82531 5.33443 8.397C5.15702 7.96869 5.1106 7.4974 5.20104 7.04271C5.29148 6.58802 5.51474 6.17036 5.84255 5.84254C6.17036 5.51473 6.58802 5.29148 7.04271 5.20103C7.49741 5.11059 7.9687 5.15702 8.39701 5.33443C8.82532 5.51184 9.1914 5.81227 9.44897 6.19774C9.70653 6.58321 9.844 7.0364 9.844 7.5C9.84321 8.12142 9.596 8.71717 9.15659 9.15659C8.71718 9.596 8.12143 9.8432 7.50001 9.84399Z" fill="#06104A"/>
<path d="M11.5322 3.96899C11.8084 3.96899 12.0322 3.74514 12.0322 3.46899C12.0322 3.19285 11.8084 2.96899 11.5322 2.96899C11.2561 2.96899 11.0322 3.19285 11.0322 3.46899C11.0322 3.74514 11.2561 3.96899 11.5322 3.96899Z" fill="#06104A"/>
</svg>
