<svg width="13" height="21" viewBox="0 0 13 21" fill="none" xmlns="http://www.w3.org/2000/svg">
<path d="M11.959 19.143C11.9561 19.3641 11.8658 19.5749 11.7078 19.7295C11.5498 19.8842 11.337 19.9699 11.116 19.968H1.843C1.62196 19.9699 1.40918 19.8842 1.2512 19.7295C1.09322 19.5749 1.0029 19.3641 1 19.143V1.82503C1.0029 1.604 1.09322 1.39312 1.2512 1.23851C1.40918 1.08391 1.62196 0.99816 1.843 1.00003H11.116C11.337 0.99816 11.5498 1.08391 11.7078 1.23851C11.8658 1.39312 11.9561 1.604 11.959 1.82503V19.143Z" stroke="black" stroke-width="0.7" stroke-miterlimit="10" stroke-linecap="round" stroke-linejoin="round"/>
<path d="M6.05762 2.64893H6.90062" stroke="black" stroke-width="0.7" stroke-miterlimit="10" stroke-linecap="round" stroke-linejoin="round"/>
<path d="M6.47874 18.3189C6.94432 18.3189 7.32174 17.9496 7.32174 17.4939C7.32174 17.0383 6.94432 16.6689 6.47874 16.6689C6.01317 16.6689 5.63574 17.0383 5.63574 17.4939C5.63574 17.9496 6.01317 18.3189 6.47874 18.3189Z" stroke="black" stroke-width="0.7" stroke-miterlimit="10" stroke-linecap="round" stroke-linejoin="round"/>
<path d="M10.2725 4.29907H2.68555V15.0201H10.2725V4.29907Z" stroke="black" stroke-width="0.7" stroke-miterlimit="10" stroke-linecap="round" stroke-linejoin="round"/>
</svg>
