<svg width="226" height="39" viewBox="0 0 226 39" fill="none" xmlns="http://www.w3.org/2000/svg">
<path d="M62.5 12V26H59.26V20.26H52.9V26H49.66V12H52.9V17.52H59.26V12H62.5ZM70.7123 26.16C69.579 26.16 68.559 25.9267 67.6523 25.46C66.759 24.98 66.059 24.32 65.5523 23.48C65.0457 22.64 64.7923 21.6867 64.7923 20.62C64.7923 19.5533 65.0457 18.6 65.5523 17.76C66.059 16.92 66.759 16.2667 67.6523 15.8C68.559 15.32 69.579 15.08 70.7123 15.08C71.8457 15.08 72.859 15.32 73.7523 15.8C74.6457 16.2667 75.3457 16.92 75.8523 17.76C76.359 18.6 76.6123 19.5533 76.6123 20.62C76.6123 21.6867 76.359 22.64 75.8523 23.48C75.3457 24.32 74.6457 24.98 73.7523 25.46C72.859 25.9267 71.8457 26.16 70.7123 26.16ZM70.7123 23.6C71.5123 23.6 72.1657 23.3333 72.6723 22.8C73.1923 22.2533 73.4523 21.5267 73.4523 20.62C73.4523 19.7133 73.1923 18.9933 72.6723 18.46C72.1657 17.9133 71.5123 17.64 70.7123 17.64C69.9123 17.64 69.2523 17.9133 68.7323 18.46C68.2123 18.9933 67.9523 19.7133 67.9523 20.62C67.9523 21.5267 68.2123 22.2533 68.7323 22.8C69.2523 23.3333 69.9123 23.6 70.7123 23.6ZM89.5378 15.24V26H86.5778V24.72C86.1645 25.1867 85.6711 25.5467 85.0978 25.8C84.5245 26.04 83.9045 26.16 83.2378 26.16C81.8245 26.16 80.7045 25.7533 79.8778 24.94C79.0511 24.1267 78.6378 22.92 78.6378 21.32V15.24H81.7578V20.86C81.7578 22.5933 82.4845 23.46 83.9378 23.46C84.6845 23.46 85.2845 23.22 85.7378 22.74C86.1911 22.2467 86.4178 21.52 86.4178 20.56V15.24H89.5378ZM96.0483 26.16C95.1549 26.16 94.2816 26.0533 93.4283 25.84C92.5749 25.6133 91.8949 25.3333 91.3883 25L92.4283 22.76C92.9083 23.0667 93.4883 23.32 94.1683 23.52C94.8483 23.7067 95.5149 23.8 96.1683 23.8C97.4883 23.8 98.1483 23.4733 98.1483 22.82C98.1483 22.5133 97.9683 22.2933 97.6083 22.16C97.2483 22.0267 96.6949 21.9133 95.9483 21.82C95.0683 21.6867 94.3416 21.5333 93.7683 21.36C93.1949 21.1867 92.6949 20.88 92.2683 20.44C91.8549 20 91.6483 19.3733 91.6483 18.56C91.6483 17.88 91.8416 17.28 92.2283 16.76C92.6283 16.2267 93.2016 15.8133 93.9483 15.52C94.7083 15.2267 95.6016 15.08 96.6283 15.08C97.3883 15.08 98.1416 15.1667 98.8883 15.34C99.6483 15.5 100.275 15.7267 100.768 16.02L99.7283 18.24C98.7816 17.7067 97.7483 17.44 96.6283 17.44C95.9616 17.44 95.4616 17.5333 95.1283 17.72C94.7949 17.9067 94.6283 18.1467 94.6283 18.44C94.6283 18.7733 94.8083 19.0067 95.1683 19.14C95.5283 19.2733 96.1016 19.4 96.8883 19.52C97.7683 19.6667 98.4883 19.8267 99.0483 20C99.6083 20.16 100.095 20.46 100.508 20.9C100.922 21.34 101.128 21.9533 101.128 22.74C101.128 23.4067 100.928 24 100.528 24.52C100.128 25.04 99.5416 25.4467 98.7683 25.74C98.0083 26.02 97.1016 26.16 96.0483 26.16ZM113.593 20.66C113.593 20.7 113.573 20.98 113.533 21.5H105.393C105.54 22.1667 105.887 22.6933 106.433 23.08C106.98 23.4667 107.66 23.66 108.473 23.66C109.033 23.66 109.527 23.58 109.953 23.42C110.393 23.2467 110.8 22.98 111.173 22.62L112.833 24.42C111.82 25.58 110.34 26.16 108.393 26.16C107.18 26.16 106.107 25.9267 105.173 25.46C104.24 24.98 103.52 24.32 103.013 23.48C102.507 22.64 102.253 21.6867 102.253 20.62C102.253 19.5667 102.5 18.62 102.993 17.78C103.5 16.9267 104.187 16.2667 105.053 15.8C105.933 15.32 106.913 15.08 107.993 15.08C109.047 15.08 110 15.3067 110.853 15.76C111.707 16.2133 112.373 16.8667 112.853 17.72C113.347 18.56 113.593 19.54 113.593 20.66ZM108.013 17.44C107.307 17.44 106.713 17.64 106.233 18.04C105.753 18.44 105.46 18.9867 105.353 19.68H110.653C110.547 19 110.253 18.46 109.773 18.06C109.293 17.6467 108.707 17.44 108.013 17.44ZM128.335 26.24C126.881 26.24 125.568 25.9267 124.395 25.3C123.235 24.6733 122.321 23.8133 121.655 22.72C121.001 21.6133 120.675 20.3733 120.675 19C120.675 17.6267 121.001 16.3933 121.655 15.3C122.321 14.1933 123.235 13.3267 124.395 12.7C125.568 12.0733 126.881 11.76 128.335 11.76C129.788 11.76 131.095 12.0733 132.255 12.7C133.415 13.3267 134.328 14.1933 134.995 15.3C135.661 16.3933 135.995 17.6267 135.995 19C135.995 20.3733 135.661 21.6133 134.995 22.72C134.328 23.8133 133.415 24.6733 132.255 25.3C131.095 25.9267 129.788 26.24 128.335 26.24ZM128.335 23.48C129.161 23.48 129.908 23.2933 130.575 22.92C131.241 22.5333 131.761 22 132.135 21.32C132.521 20.64 132.715 19.8667 132.715 19C132.715 18.1333 132.521 17.36 132.135 16.68C131.761 16 131.241 15.4733 130.575 15.1C129.908 14.7133 129.161 14.52 128.335 14.52C127.508 14.52 126.761 14.7133 126.095 15.1C125.428 15.4733 124.901 16 124.515 16.68C124.141 17.36 123.955 18.1333 123.955 19C123.955 19.8667 124.141 20.64 124.515 21.32C124.901 22 125.428 22.5333 126.095 22.92C126.761 23.2933 127.508 23.48 128.335 23.48ZM141.63 15.48H144.39V17.88H141.71V26H138.59V17.88H136.93V15.48H138.59V15C138.59 13.7733 138.95 12.8 139.67 12.08C140.403 11.36 141.43 11 142.75 11C143.216 11 143.656 11.0533 144.07 11.16C144.496 11.2533 144.85 11.3933 145.13 11.58L144.31 13.84C143.95 13.5867 143.53 13.46 143.05 13.46C142.103 13.46 141.63 13.98 141.63 15.02V15.48ZM157.888 12C159.128 12 160.201 12.2067 161.108 12.62C162.028 13.0333 162.735 13.62 163.228 14.38C163.721 15.14 163.968 16.04 163.968 17.08C163.968 18.1067 163.721 19.0067 163.228 19.78C162.735 20.54 162.028 21.1267 161.108 21.54C160.201 21.94 159.128 22.14 157.888 22.14H155.068V26H151.828V12H157.888ZM157.708 19.5C158.681 19.5 159.421 19.2933 159.928 18.88C160.435 18.4533 160.688 17.8533 160.688 17.08C160.688 16.2933 160.435 15.6933 159.928 15.28C159.421 14.8533 158.681 14.64 157.708 14.64H155.068V19.5H157.708ZM176.582 20.66C176.582 20.7 176.562 20.98 176.522 21.5H168.382C168.528 22.1667 168.875 22.6933 169.422 23.08C169.968 23.4667 170.648 23.66 171.462 23.66C172.022 23.66 172.515 23.58 172.942 23.42C173.382 23.2467 173.788 22.98 174.162 22.62L175.822 24.42C174.808 25.58 173.328 26.16 171.382 26.16C170.168 26.16 169.095 25.9267 168.162 25.46C167.228 24.98 166.508 24.32 166.002 23.48C165.495 22.64 165.242 21.6867 165.242 20.62C165.242 19.5667 165.488 18.62 165.982 17.78C166.488 16.9267 167.175 16.2667 168.042 15.8C168.922 15.32 169.902 15.08 170.982 15.08C172.035 15.08 172.988 15.3067 173.842 15.76C174.695 16.2133 175.362 16.8667 175.842 17.72C176.335 18.56 176.582 19.54 176.582 20.66ZM171.002 17.44C170.295 17.44 169.702 17.64 169.222 18.04C168.742 18.44 168.448 18.9867 168.342 19.68H173.642C173.535 19 173.242 18.46 172.762 18.06C172.282 17.6467 171.695 17.44 171.002 17.44ZM185.199 15.08C186.532 15.08 187.605 15.48 188.419 16.28C189.245 17.08 189.659 18.2667 189.659 19.84V26H186.539V20.32C186.539 19.4667 186.352 18.8333 185.979 18.42C185.605 17.9933 185.065 17.78 184.359 17.78C183.572 17.78 182.945 18.0267 182.479 18.52C182.012 19 181.779 19.72 181.779 20.68V26H178.659V15.24H181.639V16.5C182.052 16.0467 182.565 15.7 183.179 15.46C183.792 15.2067 184.465 15.08 185.199 15.08ZM197.804 26.16C196.657 26.16 195.624 25.9267 194.704 25.46C193.797 24.98 193.084 24.32 192.564 23.48C192.057 22.64 191.804 21.6867 191.804 20.62C191.804 19.5533 192.057 18.6 192.564 17.76C193.084 16.92 193.797 16.2667 194.704 15.8C195.624 15.32 196.657 15.08 197.804 15.08C198.937 15.08 199.924 15.32 200.764 15.8C201.617 16.2667 202.237 16.94 202.624 17.82L200.204 19.12C199.644 18.1333 198.837 17.64 197.784 17.64C196.971 17.64 196.297 17.9067 195.764 18.44C195.231 18.9733 194.964 19.7 194.964 20.62C194.964 21.54 195.231 22.2667 195.764 22.8C196.297 23.3333 196.971 23.6 197.784 23.6C198.851 23.6 199.657 23.1067 200.204 22.12L202.624 23.44C202.237 24.2933 201.617 24.96 200.764 25.44C199.924 25.92 198.937 26.16 197.804 26.16ZM204.42 15.24H207.54V26H204.42V15.24ZM205.98 13.74C205.407 13.74 204.94 13.5733 204.58 13.24C204.22 12.9067 204.04 12.4933 204.04 12C204.04 11.5067 204.22 11.0933 204.58 10.76C204.94 10.4267 205.407 10.26 205.98 10.26C206.554 10.26 207.02 10.42 207.38 10.74C207.74 11.06 207.92 11.46 207.92 11.94C207.92 12.46 207.74 12.8933 207.38 13.24C207.02 13.5733 206.554 13.74 205.98 13.74ZM210.436 11.16H213.556V26H210.436V11.16ZM220.072 26.16C219.178 26.16 218.305 26.0533 217.452 25.84C216.598 25.6133 215.918 25.3333 215.412 25L216.452 22.76C216.932 23.0667 217.512 23.32 218.192 23.52C218.872 23.7067 219.538 23.8 220.192 23.8C221.512 23.8 222.172 23.4733 222.172 22.82C222.172 22.5133 221.992 22.2933 221.632 22.16C221.272 22.0267 220.718 21.9133 219.972 21.82C219.092 21.6867 218.365 21.5333 217.792 21.36C217.218 21.1867 216.718 20.88 216.292 20.44C215.878 20 215.672 19.3733 215.672 18.56C215.672 17.88 215.865 17.28 216.252 16.76C216.652 16.2267 217.225 15.8133 217.972 15.52C218.732 15.2267 219.625 15.08 220.652 15.08C221.412 15.08 222.165 15.1667 222.912 15.34C223.672 15.5 224.298 15.7267 224.792 16.02L223.752 18.24C222.805 17.7067 221.772 17.44 220.652 17.44C219.985 17.44 219.485 17.5333 219.152 17.72C218.818 17.9067 218.652 18.1467 218.652 18.44C218.652 18.7733 218.832 19.0067 219.192 19.14C219.552 19.2733 220.125 19.4 220.912 19.52C221.792 19.6667 222.512 19.8267 223.072 20C223.632 20.16 224.118 20.46 224.532 20.9C224.945 21.34 225.152 21.9533 225.152 22.74C225.152 23.4067 224.952 24 224.552 24.52C224.152 25.04 223.565 25.4467 222.792 25.74C222.032 26.02 221.125 26.16 220.072 26.16Z" fill="#06104A"/>
<g clip-path="url(#clip0)">
<path d="M39.9654 11.6789C39.8907 11.4005 39.7142 11.1696 39.4629 11.027L20.8787 0.298807C20.8176 0.264857 20.7497 0.237697 20.6885 0.217327L20.5459 0.135846C20.4713 0.0951062 20.4034 0.0747361 20.3151 0.0543661L20.2336 0.033996C20.2268 0.033996 20.2132 0.033996 20.2064 0.027206C20.1929 0.020416 20.1793 0.013626 20.1589 0.013626C20.1318 0.00683594 20.0978 0.00683594 20.0706 0.00683594C20.0571 0.00683594 20.0503 0.00683594 20.0367 0.00683594C20.0231 0.00683594 20.0163 0.00683594 20.0027 0.00683594C19.9552 0.00683594 19.9009 0.00683594 19.8534 0.020416C19.8398 0.020416 19.8194 0.027206 19.8058 0.033996C19.799 0.033996 19.799 0.033996 19.7923 0.033996L19.6565 0.0747361C19.6089 0.0883162 19.541 0.101896 19.4663 0.149426L0.535764 11.0338C0.026513 11.3258 -0.156818 11.9844 0.141943 12.5005C0.427124 12.9961 1.10613 13.1795 1.60859 12.8943L3.0956 12.0387V28.1447C3.0956 28.7558 3.42152 29.3193 3.95114 29.6249L19.1676 38.4112C19.4256 38.5606 19.7244 38.642 20.0231 38.642C20.3219 38.642 20.6206 38.5606 20.8787 38.4112L36.0951 29.6249C36.6247 29.3193 36.9506 28.7558 36.9506 28.1447V12.0523L38.3969 12.8875C38.8926 13.1727 39.5784 12.9894 39.8636 12.4937C39.9994 12.2492 40.0401 11.9573 39.9654 11.6789ZM34.7982 10.8233V27.8867L20.0231 36.4217L24.3144 30.2903C24.3144 30.2903 22.5762 31.3088 20.0163 31.2952C17.375 31.2817 15.7047 30.2903 15.7047 30.2903L19.9552 36.3742L5.24125 27.8867V10.8165L15.7182 4.76664V19.372L17.1102 20.1732V8.33819C17.1102 7.93079 17.4361 7.60487 17.8435 7.60487C18.2509 7.60487 18.5768 7.93079 18.5768 8.33819V21.0219L20.0231 21.8503L21.4694 21.0219V8.33819C21.4694 7.93079 21.7953 7.60487 22.2027 7.60487C22.6101 7.60487 22.936 7.93079 22.936 8.33819V20.1732L24.328 19.372V4.78701L34.7982 10.8233Z" fill="#F84444"/>
<path d="M22.9083 27.7102C22.9083 28.1176 22.5823 28.4435 22.1749 28.4435C21.7675 28.4435 21.4416 28.1176 21.4416 27.7102V22.7127L20.3756 23.3306C20.2602 23.3985 20.1311 23.4257 20.0089 23.4257H20.0021C19.9953 23.4257 19.9953 23.4257 19.9886 23.4257C19.8663 23.4257 19.7373 23.3917 19.6219 23.3306L18.5559 22.7127V27.7102C18.5559 28.1176 18.2299 28.4435 17.8225 28.4435C17.4151 28.4435 17.0892 28.1176 17.0892 27.7102V21.8708L15.6973 21.0695V28.4503C16.3016 28.7694 20.1108 30.5077 24.307 28.4435V21.0627L22.9151 21.864V27.7102H22.9083Z" fill="#F84444"/>
</g>
<defs>
<clipPath id="clip0">
<rect width="40" height="38.6284" fill="white"/>
</clipPath>
</defs>
</svg>
