<svg width="693" height="279" viewBox="0 0 693 279" fill="none" xmlns="http://www.w3.org/2000/svg">
<path d="M87.5378 241.105L103.522 277.349L55.5586 265.27L87.5378 241.105Z" fill="#FDFA64"/>
<path d="M54.6426 255.1L93.805 225.507L113.386 269.896L54.6426 255.1ZM91.0637 234.291L66.2676 253.028L103.451 262.397L91.0637 234.291Z" fill="black"/>
<path d="M498.08 244.024L530.243 266.399L559.853 242.095L527.69 219.72L498.08 244.024Z" fill="#FB4437"/>
<path d="M221.567 37.5945L253.73 59.9693L283.34 35.6653L251.177 13.2905L221.567 37.5945Z" fill="#FE7B7B"/>
<path d="M514.08 215.429L549.461 240.038L516.894 266.773L481.514 242.164L514.08 215.429ZM543.287 240.233L514.338 220.094L487.687 241.97L516.636 262.109L543.287 240.233Z" fill="black"/>
<path d="M237.567 9L272.947 33.609L240.38 60.344L205 35.735L237.567 9ZM266.774 33.8037L237.824 13.6648L211.173 35.5403L240.123 55.6792L266.774 33.8037Z" fill="black"/>
<path d="M45.5 162C55.7173 162 64 153.493 64 143C64 132.507 55.7173 124 45.5 124C35.2827 124 27 132.507 27 143C27 153.493 35.2827 162 45.5 162Z" fill="#40BF61"/>
<path d="M24.8527 164.855C17.0491 156.661 17.0491 143.339 24.8527 135.145C32.6562 126.952 45.3438 126.952 53.1473 135.145C60.9509 143.339 60.9509 156.661 53.1473 164.855C45.3438 173.048 32.6562 173.048 24.8527 164.855ZM50.5723 137.849C44.1932 131.151 33.8068 131.151 27.4277 137.849C21.0487 144.547 21.0487 155.453 27.4277 162.151C33.8068 168.849 44.1932 168.849 50.5723 162.151C56.9513 155.453 56.9513 144.547 50.5723 137.849Z" fill="black"/>
<path d="M665.267 233.785L664.916 245.716L680.705 245.98L680.355 257.911L693 258.121L692.856 262.872L673.934 262.553L674.285 250.622L658.496 250.357L658.846 238.426L643.058 238.162L643.48 223.856L649.756 223.965L649.478 233.52L665.267 233.785Z" fill="#FF66B6"/>
<path d="M668.08 269.071L668.441 257.14L652.652 256.875L653.002 244.945L640.347 244.727L640.491 239.984L659.423 240.303L659.073 252.234L674.851 252.499L674.5 264.429L690.289 264.694L689.867 279L683.59 278.891L683.869 269.336L668.08 269.071Z" fill="black"/>
<path d="M22.7142 21.159L16.2627 32.054L30.6807 36.929L24.2292 47.8162L35.7718 51.7256L33.2159 56.0555L15.9329 50.2148L22.3741 39.3199L7.96647 34.4448L14.4077 23.5499L0 18.6826L7.72943 5.62268L13.4595 7.56181L8.29626 16.284L22.7142 21.159Z" fill="#FF66B6"/>
<path d="M24.7748 15.5364L18.3233 26.4313L32.7412 31.3064L26.2897 42.2013L37.8324 46.1029L35.2765 50.4328L17.9935 44.5921L24.4347 33.6972L10.027 28.8299L16.4682 17.935L2.06055 13.0599L9.78998 0L15.5201 1.93913L10.3568 10.6691L24.7748 15.5364Z" fill="black"/>
<path d="M473.643 23.5314L521.617 11.4528L505.622 47.6965L473.643 23.5314Z" fill="#FDFA64"/>
<path d="M492.162 48.3896L453 18.7965L511.744 4L492.162 48.3896ZM464.625 20.8681L489.421 39.6052L501.819 11.5073L464.625 20.8681Z" fill="black"/>
<path d="M662.845 24.9279H656.568V63.6169H662.845V24.9279Z" fill="#70CDC4"/>
<path d="M677.088 34.7092H670.812V73.0011H677.088V34.7092Z" fill="#70CDC4"/>
<path d="M672.956 17H666.68V55.6891H672.956V17Z" fill="black"/>
</svg>
