<svg width="40" height="39" viewBox="0 0 40 39" fill="none" xmlns="http://www.w3.org/2000/svg">
<path d="M39.9654 11.6789C39.8907 11.4005 39.7142 11.1696 39.4629 11.027L20.8787 0.298807C20.8176 0.264857 20.7497 0.237697 20.6885 0.217327L20.5459 0.135846C20.4713 0.0951062 20.4034 0.0747361 20.3151 0.0543661L20.2336 0.033996C20.2268 0.033996 20.2132 0.033996 20.2064 0.027206C20.1929 0.020416 20.1793 0.013626 20.1589 0.013626C20.1318 0.00683594 20.0978 0.00683594 20.0706 0.00683594C20.0571 0.00683594 20.0503 0.00683594 20.0367 0.00683594C20.0231 0.00683594 20.0163 0.00683594 20.0027 0.00683594C19.9552 0.00683594 19.9009 0.00683594 19.8534 0.020416C19.8398 0.020416 19.8194 0.027206 19.8058 0.033996C19.799 0.033996 19.799 0.033996 19.7923 0.033996L19.6565 0.0747361C19.6089 0.0883162 19.541 0.101896 19.4663 0.149426L0.535764 11.0338C0.026513 11.3258 -0.156818 11.9844 0.141943 12.5005C0.427124 12.9961 1.10613 13.1795 1.60859 12.8943L3.0956 12.0387V28.1447C3.0956 28.7558 3.42152 29.3193 3.95114 29.6249L19.1676 38.4112C19.4256 38.5606 19.7244 38.642 20.0231 38.642C20.3219 38.642 20.6206 38.5606 20.8787 38.4112L36.0951 29.6249C36.6247 29.3193 36.9506 28.7558 36.9506 28.1447V12.0523L38.3969 12.8875C38.8926 13.1727 39.5784 12.9894 39.8636 12.4937C39.9994 12.2492 40.0401 11.9573 39.9654 11.6789ZM34.7982 10.8233V27.8867L20.0231 36.4217L24.3144 30.2903C24.3144 30.2903 22.5762 31.3088 20.0163 31.2952C17.375 31.2817 15.7047 30.2903 15.7047 30.2903L19.9552 36.3742L5.24125 27.8867V10.8165L15.7182 4.76664V19.372L17.1102 20.1732V8.33819C17.1102 7.93079 17.4361 7.60487 17.8435 7.60487C18.2509 7.60487 18.5768 7.93079 18.5768 8.33819V21.0219L20.0231 21.8503L21.4694 21.0219V8.33819C21.4694 7.93079 21.7953 7.60487 22.2027 7.60487C22.6101 7.60487 22.936 7.93079 22.936 8.33819V20.1732L24.328 19.372V4.78701L34.7982 10.8233Z" fill="#F84444"/>
</svg>
