<svg width="350" height="312" viewBox="0 0 350 312" fill="none" xmlns="http://www.w3.org/2000/svg">
<path d="M306.47 146.474C306.47 146.474 317.614 139.705 320.12 141.696C323.746 144.567 324.948 149.419 324.948 149.419C324.948 149.419 330.832 126.992 336.45 127.845C339.672 128.331 338.093 130.845 336.643 133.991C335.303 136.917 333.017 147.639 333.017 147.639C333.017 147.639 343.665 135.018 346.796 135.247C349.219 135.422 349.568 137.55 346.08 140.962C342.601 144.374 336.817 155.124 336.817 155.124C336.817 155.124 344.28 148.181 347.356 148.135C349.816 148.107 351.404 149.813 348.218 152.565C345.042 155.326 340.223 157.39 337.662 162.389C334.495 168.543 327.748 183.87 327.748 183.87L304.129 175.514C304.129 175.514 300.283 159.857 300.136 156.06C300.136 156.06 300.457 148.025 300.411 146.594C300.365 145.163 304.166 144.796 305.313 147.548C306.47 150.29 305.946 153.18 306.415 155.005C306.883 156.83 307.718 158.527 309.049 159.343C310.389 160.16 313.786 160.215 314.658 159.206C315.53 158.197 316.576 155.252 316.806 153.446C317.035 151.639 316.742 148.777 316.742 148.777C316.742 148.777 306.947 152.758 306.47 146.474Z" fill="#FFD3D0"/>
<path d="M41.1426 219.505L24.7294 213.36C24.7294 213.36 8.02256 203.582 4.92903 207.058C4.92903 207.058 1.62437 205.481 0.155637 209.003C-0.698066 211.039 2.11089 214.002 2.11089 214.002C2.11089 214.002 1.23883 214.882 2.62495 217.882C4.01107 220.881 19.8643 230.329 19.8643 230.329C19.8643 230.329 40.4816 241.565 48.8167 246.94L63.2012 227.394L61.2 226.651C61.2 226.651 60.0158 216.909 56.0227 214.314C51.6808 211.489 46.4392 203.839 45.2918 200.839C44.1443 197.84 38.5998 199.225 39.527 205.444C40.4449 211.663 45.2918 213.277 44.8328 217.423C44.3738 221.587 41.1426 219.505 41.1426 219.505Z" fill="#FFD3D0"/>
<path d="M15.9901 221.78C15.9259 221.899 12.7314 220.23 8.84839 218.056C4.96541 215.882 1.88106 214.029 1.94532 213.919C2.00958 213.8 5.20408 215.469 9.08705 217.643C12.9608 219.817 16.0544 221.67 15.9901 221.78Z" fill="#EB996E"/>
<path d="M23.9948 217.175C23.9673 217.23 22.8473 216.781 21.0481 216.001C19.2581 215.222 16.7888 214.103 14.1267 212.745C11.4646 211.388 9.12384 210.021 7.48069 208.948C6.6637 208.407 6.01195 207.957 5.58051 207.618C5.13989 207.288 4.9104 207.086 4.92876 207.058C4.97465 206.994 5.98441 207.664 7.6551 208.654C9.33497 209.645 11.6941 210.957 14.3379 212.314C16.9908 213.672 19.4234 214.836 21.1767 215.69C22.9483 216.552 24.0223 217.111 23.9948 217.175Z" fill="#EB996E"/>
<path d="M27.4467 226.201C27.4284 226.229 26.9143 225.944 25.9964 225.412C25.0142 224.825 23.7106 224.046 22.1318 223.11L22.0859 223.082L22.0583 223.027C21.3331 221.459 20.4335 219.624 19.2769 217.698C18.6894 216.754 18.0468 215.735 17.1931 214.937C16.3394 214.149 14.9808 214.011 13.9619 214.699C13.7416 214.818 13.4754 215.084 13.4478 215.167C13.4754 215.203 13.4662 215.213 13.4846 215.277L13.5488 215.479C13.5855 215.616 13.6406 215.754 13.6957 215.891C13.8976 216.442 14.1088 216.974 14.3199 217.506C14.7514 218.56 15.1736 219.588 15.5775 220.569C16.3945 222.514 17.138 224.302 17.799 225.862L17.7714 225.816C19.1208 227.394 20.2316 228.696 21.0669 229.677C21.4157 230.099 21.7095 230.457 21.9482 230.751C22.1409 230.998 22.2419 231.136 22.2327 231.145C22.2235 231.154 22.095 231.044 21.8747 230.815C21.6177 230.54 21.2964 230.209 20.92 229.806C20.0572 228.852 18.9005 227.586 17.4961 226.045L17.4777 226.027L17.4685 225.999C16.7892 224.468 16.009 222.697 15.1736 220.734C14.7605 219.753 14.3383 218.726 13.8976 217.671C13.6865 217.139 13.4662 216.598 13.2643 216.038C13.2092 215.9 13.1633 215.763 13.1174 215.616L13.0439 215.396C13.0164 215.313 12.998 215.176 12.998 215.066C13.0807 214.772 13.2184 214.717 13.3285 214.58C13.457 214.47 13.5855 214.369 13.7232 214.286C14.3107 213.91 15.0084 213.717 15.6969 213.782C16.3945 213.828 17.0187 214.158 17.5144 214.58C18.4599 215.469 19.0841 216.488 19.6808 217.46C20.8374 219.423 21.7095 221.285 22.4071 222.881L22.3429 222.798C23.8851 223.798 25.161 224.614 26.1249 225.238C26.9786 225.834 27.4651 226.174 27.4467 226.201Z" fill="#EB996E"/>
<path d="M43.8964 226.366C43.878 226.43 43.107 226.219 41.8769 225.871C40.6468 225.541 38.9394 225.064 37.0301 225.018C35.1207 224.972 33.4133 225.513 32.3485 226.164C31.2744 226.806 30.7971 227.467 30.7328 227.403C30.6961 227.384 31.0817 226.632 32.1649 225.88C33.2297 225.119 35.0289 224.495 37.0301 224.541C39.0312 224.596 40.7662 225.137 41.9687 225.55C43.1987 225.981 43.9148 226.302 43.8964 226.366Z" fill="#EB996E"/>
<path d="M42.6668 222.028C42.777 222.11 42.3639 222.816 41.9692 223.734C41.5653 224.642 41.3174 225.421 41.1889 225.394C41.0604 225.376 41.1063 224.504 41.5377 223.541C41.96 222.569 42.5659 221.954 42.6668 222.028Z" fill="#EB996E"/>
<path d="M137.244 144.08C138.373 136.357 147.378 125.268 155.355 125.259C150.784 118.645 150.72 109.335 155.181 102.649C158.256 98.0532 163.213 94.6686 165.315 89.5687C167.693 83.7993 165.866 77.2868 166.096 71.0679C166.426 61.9689 171.163 53.6587 175.78 45.752C180.003 38.515 185.162 30.5809 193.469 28.8014C198.729 27.6732 204.182 29.3334 209.12 31.4339C232.758 41.496 251.135 62.6935 257.442 87.1655C258.947 93.0267 259.966 99.3649 264.051 103.887C268.375 108.684 275.957 111.28 277.261 117.554C278.188 122.048 275.305 126.57 275.737 131.147C276.104 134.972 283.273 146.135 284.935 149.621C287.78 155.628 286.752 162.113 283.852 168.103C280.951 174.083 273.561 179.917 267.007 181.541L193.754 157.151C186.86 161.068 179.994 176.239 172.081 177.165C164.168 178.101 154.511 181.541 146.901 173.212C138.924 164.517 136.106 151.813 137.244 144.08Z" fill="#263238"/>
<path d="M258.708 71.2789C257.891 77.4061 259.571 87.5324 262.922 92.7607C265.171 96.2737 268.925 98.5577 272.624 100.566C276.324 102.575 280.207 104.501 283.007 107.602C285.816 110.702 287.321 115.362 285.439 119.076C292.039 121.535 294.995 129.937 292.581 136.431C290.158 142.925 283.521 147.3 276.59 148.593L246.38 139.513L239.743 100.988L257.184 71.2697" fill="#263238"/>
<path d="M262.417 110.555C262.426 110.546 262.628 110.629 263.005 110.812C263.381 111.014 263.969 111.234 264.657 111.665C266.062 112.472 267.989 113.876 269.954 116.077C270.954 117.159 271.872 118.499 272.772 119.994C273.598 121.525 274.443 123.213 274.975 125.13C276.15 128.9 276.407 133.486 275.058 137.99L274.947 137.715C276.682 138.687 278.362 139.944 279.868 141.448C283.723 145.273 285.926 150.244 286.459 154.886C286.973 159.573 285.853 163.819 284.292 166.966C282.723 170.148 280.777 172.304 279.326 173.634C278.592 174.285 277.995 174.771 277.564 175.065C277.141 175.368 276.912 175.514 276.903 175.505C276.894 175.496 277.095 175.313 277.499 174.992C277.912 174.68 278.482 174.175 279.188 173.506C280.584 172.148 282.466 169.974 283.971 166.819C285.467 163.691 286.532 159.518 286 154.931C285.458 150.382 283.292 145.521 279.51 141.778C278.041 140.311 276.398 139.072 274.7 138.118L274.534 138.027L274.589 137.843C275.921 133.45 275.691 128.964 274.562 125.249C274.048 123.369 273.24 121.691 272.441 120.177C271.569 118.7 270.679 117.37 269.706 116.288C267.806 114.087 265.924 112.665 264.556 111.812C263.895 111.362 263.317 111.115 262.959 110.885C262.601 110.684 262.408 110.564 262.417 110.555Z" fill="#455A64"/>
<path d="M173.035 150.455C173.035 150.455 159.532 154.555 154.804 161.435C151.454 166.296 117.177 240.473 117.177 240.473L65.1471 224.844L46.54 249.389L104.436 281.456C115.167 287.4 128.22 287.345 138.905 281.3C144.826 277.952 149.655 272.962 152.803 266.936L167.527 238.758L173.035 150.455Z" fill="#F84444"/>
<path d="M159.22 312L167.344 277.007L161.184 251.6C157.228 238.52 153.822 217.203 158.137 200.041L172.53 150.685L188.356 143.411L224.56 137.192C225.956 137.66 262.417 147.951 262.417 147.951C267.466 149.125 269.494 149.923 269.494 149.923L273.68 176.945L261.104 221.477L255.633 265.854L267.659 312.009H159.22V312Z" fill="#F84444"/>
<path d="M180.15 147.181L190.651 142.484L237.972 143.145L249.162 149.639C249.162 149.639 210.066 192.749 200.253 194.18C175.578 197.767 180.15 147.181 180.15 147.181Z" fill="#FFD3D0"/>
<path d="M268.466 149.547C268.466 149.547 275.553 151.143 281.629 164.095C287.706 177.046 297.528 213.094 297.528 213.094L301.724 174.891L335.936 178.651L329.317 269.944C329.317 269.944 317.21 287.491 296.959 285.868C276.709 284.244 250.997 220.285 250.997 220.285L268.466 149.547Z" fill="#F84444"/>
<path d="M292.186 259.736C292.177 259.736 292.177 259.662 292.177 259.515C292.186 259.341 292.195 259.13 292.204 258.864C292.241 258.259 292.287 257.424 292.351 256.379C292.48 254.223 292.737 251.104 293.095 247.252C293.811 239.556 295.114 228.953 296.711 217.276C298.309 205.591 299.667 195.006 300.466 187.328C300.87 183.485 301.173 180.376 301.365 178.229C301.466 177.184 301.549 176.358 301.604 175.753C301.632 175.496 301.659 175.285 301.678 175.111C301.696 174.964 301.714 174.891 301.724 174.891C301.733 174.891 301.733 174.964 301.733 175.111C301.724 175.285 301.714 175.496 301.705 175.762C301.668 176.367 301.623 177.202 301.558 178.248C301.43 180.403 301.173 183.522 300.815 187.374C300.099 195.07 298.795 205.673 297.198 217.359C295.601 229.035 294.242 239.62 293.444 247.307C293.04 251.15 292.737 254.26 292.544 256.415C292.443 257.461 292.36 258.286 292.305 258.892C292.278 259.149 292.25 259.36 292.232 259.534C292.204 259.662 292.195 259.736 292.186 259.736Z" fill="#263238"/>
<path d="M117.774 260.167C117.746 260.176 117.609 259.937 117.398 259.488C117.177 259.038 116.902 258.369 116.599 257.516C115.993 255.828 115.369 253.407 115.103 250.673C114.837 247.94 114.993 245.445 115.259 243.675C115.387 242.785 115.534 242.079 115.663 241.592C115.791 241.106 115.874 240.84 115.901 240.849C115.975 240.868 115.773 241.95 115.598 243.72C115.424 245.482 115.323 247.94 115.58 250.636C115.846 253.324 116.406 255.718 116.92 257.415C117.434 259.112 117.847 260.139 117.774 260.167Z" fill="#263238"/>
<path d="M123.53 261.02C123.502 261.038 123.291 260.8 122.924 260.341C122.557 259.882 122.061 259.194 121.492 258.314C120.353 256.562 118.986 253.984 117.93 250.967C116.884 247.94 116.351 245.069 116.158 242.987C116.057 241.941 116.011 241.097 116.021 240.51C116.021 239.923 116.039 239.602 116.067 239.602C116.149 239.602 116.204 240.886 116.489 242.941C116.773 244.995 117.343 247.811 118.38 250.802C119.426 253.783 120.73 256.351 121.785 258.13C122.832 259.919 123.594 260.974 123.53 261.02Z" fill="#263238"/>
<path d="M164.03 179.449C164.048 179.459 163.984 179.706 163.855 180.192C163.709 180.715 163.516 181.412 163.268 182.293C162.736 184.155 162.001 186.778 161.083 189.988C159.302 196.492 156.833 205.527 155.649 215.754C155.061 220.863 154.942 225.779 155.447 230.2C155.915 234.631 156.897 238.538 157.861 241.767C158.825 244.995 159.743 247.573 160.376 249.352C160.679 250.215 160.918 250.893 161.102 251.407C161.267 251.875 161.34 252.132 161.322 252.132C161.304 252.141 161.203 251.902 161.01 251.435C160.808 250.93 160.542 250.26 160.202 249.417C159.523 247.656 158.559 245.096 157.54 241.859C156.53 238.63 155.511 234.704 155.015 230.246C154.474 225.788 154.584 220.826 155.181 215.699C156.374 205.426 158.908 196.382 160.771 189.897C161.717 186.65 162.534 184.045 163.103 182.238C163.387 181.376 163.608 180.678 163.773 180.165C163.92 179.688 164.011 179.449 164.03 179.449Z" fill="#263238"/>
<path d="M259.7 239.602C259.69 239.602 259.654 239.529 259.571 239.382C259.489 239.208 259.378 238.978 259.25 238.703C258.965 238.07 258.561 237.19 258.057 236.08C257.552 234.933 256.9 233.539 256.211 231.906C255.55 230.246 254.798 228.366 253.962 226.293C253.155 224.202 252.374 221.872 251.484 219.395C251.098 218.139 250.694 216.836 250.272 215.497C250.07 214.827 249.859 214.149 249.648 213.451C249.455 212.754 249.281 212.048 249.088 211.333C247.546 205.609 246.242 199.188 245.857 192.337C245.435 185.503 246.086 178.89 247.83 173.203C249.464 167.47 252.338 162.765 255.413 159.481C258.479 156.161 261.664 154.243 263.95 153.225C265.106 152.721 266.024 152.391 266.658 152.226C266.952 152.143 267.19 152.079 267.383 152.024C267.548 151.978 267.631 151.96 267.631 151.969C267.631 151.978 267.548 152.015 267.392 152.07C267.209 152.134 266.97 152.216 266.685 152.317C266.061 152.51 265.152 152.877 264.023 153.4C261.783 154.464 258.653 156.408 255.651 159.719C252.65 163.003 249.841 167.654 248.243 173.34C246.536 178.991 245.903 185.531 246.325 192.327C246.711 199.133 247.996 205.536 249.51 211.241C249.694 211.956 249.877 212.663 250.061 213.36C250.272 214.048 250.474 214.726 250.676 215.396C251.08 216.735 251.475 218.038 251.86 219.294C252.732 221.771 253.485 224.11 254.275 226.201C255.082 228.283 255.807 230.173 256.45 231.833C257.111 233.484 257.735 234.878 258.213 236.034C258.681 237.162 259.057 238.052 259.323 238.694C259.433 238.978 259.525 239.208 259.599 239.391C259.681 239.519 259.709 239.602 259.7 239.602Z" fill="#263238"/>
<g opacity="0.3">
<g opacity="0.3">
<path opacity="0.3" d="M246.665 198.253C242.194 219.395 242.13 241.143 249.831 261.332C250.281 262.506 252.044 266.67 253.301 266.725C254.889 266.807 255.642 264.826 255.918 263.258C256.487 260.038 256.826 254.746 257.395 251.526C258.102 247.499 259.066 238.171 259.066 238.171C259.066 238.171 255.367 229.714 253.742 225.174C250.722 216.754 248.17 208.718 246.766 198.913" fill="black"/>
</g>
</g>
<path d="M243.011 280.153C243.02 280.163 242.901 280.355 242.653 280.704C242.378 281.089 242.011 281.603 241.552 282.236C241.304 282.575 241.037 282.942 240.744 283.336C240.432 283.731 240.064 284.125 239.688 284.565C238.917 285.437 238.091 286.482 237.008 287.473C236.484 287.987 235.934 288.528 235.364 289.078C234.786 289.628 234.125 290.142 233.473 290.702C232.188 291.857 230.665 292.894 229.086 294.031C225.854 296.168 222.1 298.232 217.932 299.883C213.747 301.479 209.579 302.507 205.751 303.112C203.823 303.341 201.997 303.607 200.271 303.626C199.408 303.653 198.582 303.726 197.774 303.708C196.975 303.681 196.204 303.662 195.47 303.635C194.001 303.635 192.688 303.424 191.532 303.305C190.954 303.231 190.412 303.185 189.925 303.112C189.439 303.011 188.998 302.929 188.585 302.846C187.823 302.69 187.208 302.562 186.74 302.461C186.318 302.369 186.098 302.314 186.107 302.296C186.107 302.277 186.336 302.305 186.758 302.369C187.227 302.442 187.851 302.543 188.613 302.663C189.017 302.727 189.466 302.809 189.953 302.883C190.449 302.947 190.981 302.984 191.559 303.039C192.716 303.13 194.02 303.323 195.479 303.295C196.204 303.305 196.975 303.323 197.765 303.341C198.563 303.35 199.38 303.268 200.243 303.231C201.96 303.195 203.768 302.91 205.678 302.672C209.478 302.039 213.6 301.011 217.749 299.425C221.88 297.783 225.607 295.756 228.829 293.646C230.398 292.527 231.922 291.509 233.207 290.381C233.859 289.83 234.529 289.335 235.107 288.785C235.686 288.234 236.237 287.711 236.76 287.207C237.852 286.235 238.687 285.207 239.468 284.364C239.853 283.932 240.23 283.547 240.542 283.162C240.845 282.777 241.12 282.419 241.377 282.089C241.864 281.474 242.249 280.988 242.543 280.612C242.846 280.318 242.993 280.144 243.011 280.153Z" fill="#263238"/>
<path d="M235.539 266.165C235.576 266.175 235.53 266.523 235.42 267.165C235.319 267.807 235.107 268.725 234.777 269.844C234.134 272.072 232.913 275.081 230.977 278.071C229.031 281.061 226.782 283.4 225.01 284.905C224.119 285.657 223.376 286.226 222.825 286.583C222.284 286.941 221.981 287.134 221.962 287.106C221.916 287.033 223.082 286.207 224.78 284.657C226.479 283.107 228.654 280.759 230.573 277.824C232.482 274.879 233.73 271.935 234.456 269.752C235.181 267.56 235.456 266.147 235.539 266.165Z" fill="#263238"/>
<path d="M218.878 22.9769C231.683 23.0687 244.213 30.2874 250.703 41.3309C257.184 52.3745 257.386 66.8211 251.217 78.039C249.115 81.8639 246.086 85.487 241.928 86.817C243.341 64.8857 234.593 42.4958 218.676 27.3247" fill="#E8505B"/>
<path d="M233.868 26.2882C231.968 22.3349 234.006 17.3909 237.393 14.6117C240.78 11.8324 245.205 10.7042 249.473 9.68609C253.742 8.66795 258.166 7.61312 261.627 4.9256C261.131 11.7957 259.415 18.8677 254.972 24.1235C250.52 29.3885 242.809 32.3145 236.456 29.6453" fill="#E8505B"/>
<path d="M238.274 30.8193C235.355 32.0484 231.867 31.278 229.26 29.4893C226.643 27.7007 224.771 25.0224 223.238 22.2523C221.356 18.8493 219.869 15.1712 219.373 11.3096C218.877 7.44801 219.401 3.3938 221.31 0C226.331 5.34752 231.867 9.84201 234.74 16.5929C236.429 20.5554 236.227 26.9211 234.409 30.8285" fill="#E8505B"/>
<path d="M252.512 53.0533C252.548 53.0441 252.631 53.5027 252.76 54.3283C252.833 54.741 252.906 55.2455 252.952 55.8417C253.007 56.4379 253.09 57.1075 253.099 57.8597C253.182 59.3548 253.154 61.1434 253.007 63.1246C252.833 65.0967 252.512 67.2614 251.998 69.4903C251.456 71.7192 250.768 73.7922 250.033 75.6266C249.271 77.4611 248.491 79.0663 247.748 80.3688C247.399 81.0292 247.022 81.5979 246.71 82.1024C246.398 82.6069 246.104 83.0288 245.857 83.3682C245.37 84.0469 245.085 84.4138 245.058 84.3955C245.03 84.3771 245.26 83.9735 245.7 83.2673C245.921 82.9187 246.196 82.4876 246.481 81.9648C246.765 81.4511 247.123 80.8733 247.454 80.2129C248.161 78.9012 248.904 77.296 249.629 75.4707C250.336 73.6362 251.006 71.5816 251.539 69.3802C252.053 67.1788 252.383 65.0417 252.576 63.0879C252.75 61.1342 252.805 59.3639 252.769 57.878C252.778 57.135 252.714 56.4654 252.695 55.8692C252.677 55.2822 252.631 54.7685 252.585 54.3558C252.503 53.5211 252.475 53.0625 252.512 53.0533Z" fill="#263238"/>
<path d="M249.648 28.462C249.667 28.4895 249.309 28.7739 248.629 29.2692C247.895 29.6728 246.802 30.2598 245.315 30.5533C242.36 31.2229 238.1 31.0853 233.593 29.8837L233.455 29.847L233.428 29.7095C233.364 29.4343 233.299 29.1408 233.235 28.8472C232.748 26.4624 232.638 24.1234 232.932 22.023C233.198 19.9225 233.923 18.0972 234.86 16.7947C235.759 15.4463 236.861 14.7034 237.586 14.1989C238.376 13.777 238.807 13.5568 238.825 13.5843C238.844 13.6118 238.431 13.887 237.696 14.3548C237.017 14.896 235.98 15.6665 235.154 16.9873C234.291 18.2714 233.621 20.0417 233.382 22.0872C233.116 24.1234 233.244 26.4257 233.712 28.7555C233.777 29.049 233.841 29.3334 233.905 29.6086L233.74 29.4343C238.155 30.6175 242.369 30.8101 245.26 30.2415C246.729 29.9938 247.803 29.471 248.556 29.1224C249.226 28.673 249.621 28.4345 249.648 28.462Z" fill="#263238"/>
<path d="M253.402 16.5745C253.411 16.6663 252.062 16.8497 249.95 17.4734C248.895 17.7761 247.674 18.2256 246.343 18.8126C245.03 19.418 243.616 20.161 242.212 21.069C240.817 21.9954 239.577 22.9861 238.494 23.9492C237.429 24.9306 236.53 25.8754 235.832 26.7192C234.419 28.3978 233.703 29.5627 233.629 29.5168C233.602 29.4985 233.758 29.1958 234.079 28.6638C234.382 28.1226 234.896 27.3797 235.575 26.5083C236.254 25.6277 237.145 24.6463 238.201 23.6281C239.275 22.6283 240.532 21.601 241.955 20.6654C243.378 19.739 244.819 18.9961 246.168 18.409C247.527 17.8403 248.785 17.4184 249.859 17.1524C250.933 16.8772 251.814 16.7121 252.438 16.6479C253.062 16.5654 253.402 16.5378 253.402 16.5745Z" fill="#263238"/>
<path d="M238.081 30.7092C238.1 30.7092 238.081 30.8101 238.045 30.9844C238.017 31.1679 237.934 31.4155 237.797 31.7457C237.531 32.3878 236.971 33.2592 235.979 34.0388C234.997 34.791 233.547 35.4514 231.858 35.3688C230.159 35.3138 228.406 34.2865 227.314 32.6997C226.221 31.1037 225.9 29.1041 226.46 27.4989C226.992 25.8937 228.131 24.7747 229.195 24.1326C230.279 23.4905 231.298 23.2887 231.995 23.2704C232.344 23.2612 232.61 23.2796 232.794 23.3163C232.977 23.3438 233.069 23.3621 233.06 23.3805C233.051 23.4263 232.675 23.3805 232.004 23.4539C231.343 23.5272 230.38 23.7749 229.37 24.417C228.388 25.059 227.341 26.1414 226.882 27.6273C226.396 29.1041 226.699 30.9385 227.708 32.4245C228.727 33.9012 230.334 34.8552 231.885 34.9286C233.446 35.0295 234.823 34.4516 235.777 33.7637C236.741 33.0574 237.319 32.2502 237.632 31.6632C237.944 31.067 238.035 30.6909 238.081 30.7092Z" fill="#263238"/>
<path d="M226.956 30.9386C226.91 30.9845 226.635 30.4433 227.076 29.7278C227.277 29.3885 227.663 29.0491 228.168 28.8748C228.664 28.6913 229.242 28.6638 229.811 28.7005C232.106 28.8656 233.767 29.7553 233.703 29.8562C233.648 29.9847 231.959 29.3242 229.774 29.1683C228.691 29.0582 227.755 29.3426 227.351 29.9113C226.919 30.4433 227.03 30.9294 226.956 30.9386Z" fill="#263238"/>
<path d="M221.31 -7.24936e-06C221.402 0.0366824 220.3 1.33917 219.905 3.92579C219.694 5.20076 219.667 6.7509 219.685 8.47531C219.704 10.1997 219.786 12.0984 220.172 14.0246C221.044 17.877 222.623 21.1883 224.091 23.3071C224.835 24.3711 225.496 25.2058 225.964 25.7653C226.432 26.3248 226.717 26.6092 226.698 26.6367C226.643 26.7009 225.395 25.6277 223.825 23.5089C222.246 21.3901 220.603 18.0697 219.713 14.1164C219.309 12.1351 219.245 10.1997 219.254 8.46614C219.254 6.73255 219.318 5.15489 219.575 3.85241C219.823 2.54993 220.245 1.54096 220.621 0.908063C221.007 0.284338 221.292 -0.0183521 221.31 -7.24936e-06Z" fill="#263238"/>
<path d="M226.065 10.8785C226.111 10.8418 226.634 11.4197 227.359 12.447C228.084 13.4743 228.993 14.951 229.801 16.6938C230.6 18.4366 231.123 20.1059 231.417 21.3259C231.71 22.5458 231.793 23.3163 231.729 23.3346C231.582 23.3713 230.958 20.3352 229.37 16.8956C227.791 13.4559 225.936 10.9702 226.065 10.8785Z" fill="#263238"/>
<path d="M224.514 16.5929C224.606 16.5104 226.157 18.0697 228.186 19.8858C230.205 21.7111 231.821 23.2246 231.729 23.3255C231.646 23.4172 229.893 22.0689 227.864 20.2344C225.817 18.4182 224.404 16.6846 224.514 16.5929Z" fill="#263238"/>
<path d="M248.538 38.1206C248.538 38.1298 248.492 38.1665 248.409 38.249C248.28 38.3591 248.143 38.4691 248.005 38.5884C247.656 38.8911 247.124 39.2855 246.435 39.7533C245.077 40.6797 243.057 41.7804 240.652 42.5692C238.256 43.3489 235.971 43.6607 234.328 43.7249C233.501 43.7616 232.831 43.7525 232.372 43.7158C232.189 43.7066 232.014 43.6883 231.84 43.6791C231.721 43.6699 231.656 43.6607 231.656 43.6516C231.656 43.6424 231.721 43.6424 231.84 43.6424C232.005 43.6424 232.179 43.6424 232.372 43.6424C232.831 43.6516 233.492 43.6424 234.318 43.5874C235.952 43.4956 238.21 43.1654 240.597 42.3858C242.975 41.5969 244.985 40.5329 246.362 39.634C247.05 39.1846 247.592 38.8085 247.959 38.5242C248.106 38.4141 248.253 38.3132 248.381 38.2123C248.482 38.1481 248.538 38.1114 248.538 38.1206Z" fill="#FAFAFA"/>
<path d="M253.944 49.2192C253.944 49.2284 253.898 49.2651 253.806 49.3476C253.677 49.4577 253.54 49.5678 253.402 49.687C253.044 49.9805 252.512 50.3841 251.832 50.8427C250.465 51.7692 248.463 52.8882 246.086 53.7504C243.708 54.6034 241.45 55.0254 239.807 55.1813C238.981 55.2638 238.32 55.3005 237.852 55.2914C237.668 55.2914 237.494 55.2914 237.319 55.2914C237.2 55.2914 237.136 55.2822 237.136 55.2822C237.136 55.273 237.2 55.2638 237.319 55.2547C237.485 55.2455 237.659 55.2363 237.852 55.218C238.311 55.1996 238.972 55.1446 239.789 55.0437C241.423 54.8511 243.662 54.42 246.022 53.5761C248.381 52.7231 250.382 51.6316 251.759 50.7327C252.447 50.2832 252.998 49.9072 253.365 49.632C253.512 49.5219 253.659 49.421 253.797 49.3201C253.889 49.2467 253.944 49.21 253.944 49.2192Z" fill="#FAFAFA"/>
<path d="M252.448 65.4085C252.457 65.4177 252.319 65.5186 252.062 65.6929C251.805 65.8672 251.42 66.1056 250.933 66.3716C249.96 66.9036 248.537 67.5274 246.894 67.9676C245.242 68.3987 243.7 68.5455 242.589 68.5547C242.029 68.5638 241.579 68.5455 241.276 68.518C240.964 68.4905 240.799 68.4721 240.799 68.4629C240.799 68.4538 240.973 68.4446 241.285 68.4446C241.597 68.4538 242.047 68.4446 242.598 68.4171C243.7 68.3712 245.223 68.2061 246.857 67.775C248.491 67.3439 249.896 66.7477 250.878 66.2524C251.374 66.0047 251.768 65.7846 252.035 65.6287C252.283 65.4819 252.439 65.3994 252.448 65.4085Z" fill="#FAFAFA"/>
<path d="M255.559 62.932C255.568 62.987 255.018 63.1338 254.32 63.2714C253.622 63.409 253.053 63.4732 253.044 63.4181C253.035 63.3631 253.586 63.2163 254.283 63.0788C254.981 62.9503 255.55 62.877 255.559 62.932Z" fill="#FAFAFA"/>
<path d="M246.453 81.9648C246.462 82.0106 245.517 82.1574 244.36 82.0657C243.194 81.9831 242.286 81.708 242.304 81.6529C242.313 81.5979 243.231 81.7905 244.379 81.8731C245.508 81.974 246.444 81.9098 246.453 81.9648Z" fill="#FAFAFA"/>
<path d="M229.03 34.0022C229.058 34.048 228.507 34.3966 227.809 34.7818C227.112 35.1671 226.515 35.4423 226.497 35.3964C226.478 35.3505 227.02 35.002 227.717 34.6167C228.415 34.2315 229.003 33.9563 229.03 34.0022Z" fill="#FAFAFA"/>
<path d="M224.468 24.3803C224.495 24.4353 223.146 24.8389 221.76 25.8387C220.365 26.8202 219.548 27.9575 219.492 27.9117C219.474 27.9025 219.658 27.5998 220.016 27.1687C220.383 26.7376 220.943 26.1873 221.64 25.6828C222.347 25.1875 223.054 24.8389 223.577 24.6371C224.119 24.4262 224.459 24.3528 224.468 24.3803Z" fill="#FAFAFA"/>
<path d="M232.739 35.0386C232.675 35.0295 232.996 33.7912 232.785 32.2594C232.592 30.7276 231.968 29.6086 232.032 29.581C232.05 29.5719 232.234 29.8287 232.445 30.3057C232.656 30.7735 232.876 31.4522 232.977 32.2411C233.078 33.0207 233.033 33.7362 232.95 34.2406C232.867 34.7451 232.757 35.0478 232.739 35.0386Z" fill="#FAFAFA"/>
<path d="M261.14 5.12738C261.14 5.12738 260.819 5.54014 260.13 6.20055C259.451 6.86097 258.386 7.73235 256.954 8.64042C255.522 9.54849 253.723 10.4657 251.676 11.3646C249.629 12.2727 247.343 13.1624 245.021 14.2723C242.708 15.3913 240.587 16.6663 238.935 18.1522C237.282 19.6382 236.089 21.2892 235.364 22.8026C234.639 24.3161 234.354 25.6736 234.271 26.6092C234.189 27.5448 234.253 28.0676 234.226 28.0676C234.226 28.0676 234.207 27.9392 234.198 27.6915C234.171 27.4439 234.18 27.077 234.198 26.6C234.253 25.6553 234.519 24.2886 235.245 22.7384C235.97 21.2066 237.154 19.5189 238.825 18.0146C240.486 16.5012 242.625 15.217 244.947 14.0888C247.279 12.9698 249.574 12.0801 251.612 11.1904C253.659 10.3006 255.458 9.40173 256.89 8.512C258.322 7.62228 259.396 6.76924 260.085 6.12717C260.433 5.80614 260.7 5.54931 260.865 5.37504C261.039 5.20993 261.14 5.12738 261.14 5.12738Z" fill="#FAFAFA"/>
<path d="M258.662 16.0059C258.671 16.0059 258.625 16.0792 258.543 16.2168C258.423 16.3911 258.304 16.5837 258.157 16.7947C257.827 17.2992 257.313 17.9963 256.642 18.831C255.302 20.5095 253.255 22.6834 250.657 24.6921C248.059 26.7009 245.443 28.1501 243.488 29.0307C242.506 29.471 241.707 29.8012 241.138 29.9938C240.899 30.0764 240.688 30.1497 240.486 30.2231C240.339 30.269 240.257 30.2965 240.257 30.2873C240.257 30.2781 240.33 30.2415 240.477 30.1864C240.67 30.1039 240.881 30.0213 241.12 29.9296C241.68 29.7095 242.478 29.3701 243.442 28.9115C245.379 28.0034 247.968 26.545 250.547 24.5454C253.127 22.5366 255.183 20.3994 256.541 18.7484C257.221 17.9229 257.753 17.2441 258.102 16.7488C258.249 16.547 258.387 16.3636 258.515 16.1985C258.598 16.0701 258.653 16.0059 258.662 16.0059Z" fill="#FAFAFA"/>
<path d="M220.347 3.11859C220.347 3.11859 221.476 3.5497 223.128 4.58618C224.78 5.62266 226.901 7.33791 228.755 9.6677C230.609 12.0067 231.794 14.4649 232.427 16.3085C233.06 18.1522 233.226 19.3538 233.226 19.3538C233.216 19.3538 233.198 19.2804 233.152 19.1428C233.097 18.9502 233.051 18.7576 232.987 18.5374C232.858 18.0146 232.629 17.2625 232.289 16.3544C231.628 14.5383 230.435 12.1167 228.599 9.78694C226.754 7.47549 224.67 5.75108 223.045 4.69625C222.238 4.16425 221.558 3.76983 221.072 3.52218C220.87 3.41211 220.695 3.32038 220.521 3.22866C220.402 3.16445 220.337 3.12776 220.347 3.11859Z" fill="#FAFAFA"/>
<path d="M174.311 37.6161C174.669 42.4775 171.456 46.816 168.216 50.4667C164.975 54.1173 161.377 57.9147 160.679 62.7394C159.44 71.2881 167.821 79.2314 166.086 87.6975C165.159 92.2379 161.441 95.8793 160.78 100.466C160.138 104.896 162.515 109.234 165.462 112.61C168.409 115.985 171.823 115.49 174.43 119.131C177.175 122.965 181.6 126.91 185.74 129.175C195.13 134.312 206.394 126.882 210.929 125.543" fill="#263238"/>
<path d="M245.306 57.5386C249.629 55.6583 249.969 40.1569 239.119 38.3682C234.768 37.6528 231.132 35.5248 227.47 33.0666C224.229 30.8835 223.265 25.3526 220.521 22.5733C213.792 15.749 203.272 12.9239 194.028 15.4464C184.775 17.9688 177.156 25.7378 174.825 35.0295C173.246 41.3126 174.32 48.7331 179.277 52.9065C185.023 57.7496 193.551 56.6764 200.913 55.163C208.275 53.6587 216.619 52.1727 222.77 56.493C226.478 59.0979 228.608 63.3448 230.875 67.2614C233.143 71.1872 235.988 75.1955 240.275 76.6631C240.275 76.6631 243.543 84.3313 240.872 89.6696C238.21 95.008 244.002 85.9089 244.002 85.9089C244.002 85.9089 254.577 67.1238 245.306 57.5386Z" fill="#263238"/>
<path d="M190.311 166.305C190.247 156.188 190.311 127.781 190.311 127.827C190.311 127.827 174.229 125.121 170.942 104.135C169.308 93.6963 169.868 76.5989 170.786 62.6201C171.612 50.0356 179.984 34.6167 192.533 35.9742L231.693 45.9538C235.502 46.3666 238.366 49.6228 238.284 53.4477L235.897 150.63L190.311 166.305Z" fill="#FFD3D0"/>
<path d="M177.441 74.6085C177.386 76.0302 178.552 77.2502 180.03 77.3327C181.508 77.4153 182.756 76.3329 182.811 74.9112C182.866 73.4895 181.701 72.2695 180.223 72.187C178.745 72.1044 177.496 73.1868 177.441 74.6085Z" fill="#263238"/>
<path d="M174.467 71.5265C174.797 71.8751 176.844 70.3708 179.736 70.3892C182.628 70.3616 184.757 71.8567 185.069 71.499C185.225 71.3431 184.886 70.7102 183.959 70.0314C183.05 69.3618 181.499 68.7014 179.69 68.7106C177.882 68.7198 176.367 69.3802 175.495 70.0589C174.614 70.7377 174.311 71.3706 174.467 71.5265Z" fill="#263238"/>
<path d="M202.951 76.1403C203.282 76.4889 205.329 74.9846 208.23 75.0029C211.121 74.9754 213.251 76.4705 213.563 76.1128C213.719 75.9569 213.379 75.324 212.452 74.6452C211.543 73.9756 209.992 73.3152 208.184 73.3244C206.375 73.3335 204.861 73.994 203.989 74.6727C203.089 75.3515 202.786 75.9844 202.951 76.1403Z" fill="#263238"/>
<path d="M192.386 93.5771C192.404 93.412 190.596 93.1001 187.686 92.7149C186.943 92.6323 186.245 92.4856 186.126 91.9811C185.951 91.4491 186.263 90.6511 186.621 89.7889C187.319 88.0002 188.053 86.1291 188.824 84.1662C191.881 76.1586 194.093 69.5728 193.772 69.4536C193.451 69.3344 190.706 75.7275 187.649 83.7351C186.915 85.7071 186.208 87.5875 185.538 89.3945C185.253 90.2383 184.776 91.1831 185.153 92.2929C185.354 92.8433 185.896 93.2469 186.364 93.3753C186.842 93.5221 187.255 93.5312 187.622 93.5496C190.55 93.7238 192.377 93.7422 192.386 93.5771Z" fill="#263238"/>
<path d="M190.312 127.827C190.312 127.827 204.43 128.772 218.447 120.397C218.208 120.443 210.709 134.981 190.587 132.78L190.312 127.827Z" fill="#FFADA8"/>
<path d="M193.221 101.933C192.872 100.154 194.974 99.5758 196.516 98.6127C198.059 97.6588 198.949 96.3838 200.39 97.4845C201.216 98.1082 201.804 99.0163 202.171 99.9794C202.419 100.631 202.575 101.337 202.456 102.025C202.309 102.86 201.776 103.584 201.161 104.171C200.289 104.997 199.197 105.62 198.013 105.813C196.829 106.015 195.553 105.758 194.607 105.015C193.662 104.272 193.111 103.025 193.313 101.841" fill="#FFADA8"/>
<path d="M200.904 95.595C200.436 95.5675 200.418 98.7044 197.719 100.933C195.029 103.162 191.679 102.805 191.651 103.245C191.605 103.437 192.395 103.859 193.809 103.896C195.195 103.951 197.223 103.502 198.876 102.144C200.519 100.777 201.235 98.9613 201.345 97.668C201.473 96.3563 201.125 95.5766 200.904 95.595Z" fill="#263238"/>
<path d="M202.52 69.6737C202.805 70.4625 205.696 70.0957 209.093 70.5084C212.498 70.857 215.234 71.8568 215.693 71.1505C215.895 70.8111 215.418 70.0681 214.316 69.3068C213.224 68.5455 211.47 67.8209 209.432 67.5824C207.395 67.3531 205.522 67.6741 204.283 68.1786C203.025 68.6831 202.392 69.2976 202.52 69.6737Z" fill="#263238"/>
<path d="M174.871 61.5102C175.376 62.1707 177.378 61.4919 179.773 61.4644C182.169 61.3543 184.207 61.9138 184.675 61.2259C184.877 60.8957 184.565 60.2353 183.675 59.6115C182.803 58.9878 181.343 58.4833 179.691 58.5292C178.038 58.5751 176.616 59.1713 175.771 59.8409C174.927 60.5196 174.651 61.1892 174.871 61.5102Z" fill="#263238"/>
<path d="M240.569 116.132C234.795 117.297 234.281 114.362 229.967 110.353C225.653 106.345 223.422 100.209 224.165 94.375C224.817 89.2201 227.599 83.9827 225.809 79.103C223.449 72.6547 214.398 70.6735 212.003 64.2345C210.607 60.4921 211.856 56.126 210.277 52.4571C208.79 49.0082 205.164 47.027 201.63 45.752C198.095 44.4771 194.313 43.5965 191.348 41.2942C188.383 38.9919 186.538 34.6442 188.448 31.4155C204.108 33.2867 219.548 37.0382 234.318 42.5508C237.742 43.8258 241.341 45.3668 243.369 48.412C245.508 51.6315 245.407 55.7958 245.233 59.6574C244.351 78.4884 243.47 97.3286 242.598 116.16" fill="#263238"/>
<path d="M253.953 109.088C253.963 109.097 254.045 109.005 254.183 108.831C254.311 108.638 254.55 108.381 254.761 107.996C255.239 107.235 255.808 106.015 256.147 104.327C256.487 102.658 256.515 100.484 255.808 98.1358C255.156 95.7876 253.513 93.2744 250.924 91.5683C248.437 89.8164 245.187 88.5873 243.131 85.7989C242.103 84.4322 241.671 82.6619 241.992 80.8733C242.277 79.0755 243.094 77.3052 243.819 75.434C245.426 71.6733 245.444 66.977 243.553 62.9137C242.598 60.8866 241.185 59.0062 239.294 57.6303C237.412 56.2086 235.117 55.4748 232.859 54.9612C230.582 54.4383 228.315 54.1448 226.213 53.5119C224.111 52.8882 222.109 51.9434 220.65 50.4667C219.154 49.0083 218.52 46.9903 218.236 44.9632C217.951 42.9361 217.795 40.8265 217.244 38.8636C216.216 34.9286 214.215 31.4431 211.58 28.939C208.946 26.4166 205.715 24.9765 202.658 24.5179C199.592 24.0409 196.709 24.6096 194.543 25.747C192.349 26.866 190.825 28.407 189.852 29.8104C188.879 31.2321 188.42 32.4979 188.209 33.3693C187.989 34.2407 188.007 34.7176 188.007 34.7176C188.145 34.7727 188.172 32.7456 190.146 30.0214C191.137 28.6913 192.652 27.2421 194.782 26.2148C196.884 25.1691 199.638 24.6738 202.566 25.1691C205.476 25.6461 208.56 27.0678 211.057 29.4985C213.563 31.92 215.463 35.2772 216.427 39.0837C216.95 40.9824 217.079 42.9912 217.364 45.1008C217.639 47.1738 218.337 49.4761 220.007 51.1088C221.623 52.7506 223.771 53.7412 225.956 54.3925C228.159 55.0621 230.435 55.3556 232.666 55.8692C234.878 56.3737 237.035 57.0708 238.77 58.3733C240.524 59.6483 241.855 61.4002 242.754 63.2989C244.544 67.1422 244.563 71.5266 243.048 75.1405C242.36 76.9842 241.515 78.8003 241.212 80.7632C240.863 82.7169 241.387 84.7899 242.534 86.2575C244.829 89.266 248.161 90.4401 250.575 92.1187C253.091 93.7238 254.642 96.0536 255.34 98.3009C256.065 100.539 256.092 102.639 255.817 104.281C255.211 107.583 253.816 109.033 253.953 109.088Z" fill="#455A64"/>
<path d="M226.635 88.2479C221.88 99.1814 220.999 111.748 224.184 123.231C225.139 126.662 226.443 130.221 225.635 133.688C224.754 137.44 221.614 140.155 219.328 143.255C215.381 148.593 213.848 155.638 215.207 162.132C216.575 168.626 220.816 174.459 226.571 177.762C227.177 174.313 230.39 171.965 233.557 170.46C236.724 168.956 240.221 167.846 242.645 165.315C245.059 162.774 245.747 158.123 242.938 156.032C251.016 153.922 255.597 144.328 253.899 136.155C252.201 127.983 245.545 121.525 237.981 117.985" fill="#263238"/>
<path d="M235.255 169.699C233.813 170.488 232.409 171.194 232.225 172.836C232.014 174.753 233.859 178.128 234.52 179.945C235.815 183.494 234.841 187.769 232.124 190.401C229.416 193.043 225.111 193.896 221.595 192.511C224.184 192.713 226.378 190.19 226.607 187.604C226.837 185.026 225.588 182.531 224.046 180.449C222.504 178.367 220.641 176.514 219.328 174.276C216.666 169.717 212.719 157.325 215.757 150.382" fill="#263238"/>
<path d="M242.599 156.353C242.59 156.344 242.764 156.197 243.094 155.931C243.434 155.674 243.921 155.28 244.536 154.766C245.757 153.73 247.491 152.161 249.254 149.887C250.998 147.63 252.788 144.64 253.724 140.971C254.642 137.33 254.707 132.991 253.128 128.928C252.338 126.9 251.172 125.103 249.805 123.571C248.455 122.021 246.977 120.663 245.6 119.352C244.214 118.04 242.911 116.765 241.837 115.435C240.754 114.105 239.937 112.72 239.367 111.381C238.192 108.693 238.147 106.207 238.56 104.639C238.771 103.85 239.028 103.272 239.248 102.905C239.468 102.538 239.588 102.355 239.606 102.364C239.67 102.392 239.11 103.135 238.743 104.685C238.394 106.235 238.495 108.638 239.68 111.252C240.249 112.555 241.075 113.903 242.149 115.196C243.223 116.49 244.526 117.746 245.913 119.049C247.299 120.351 248.786 121.709 250.163 123.287C251.558 124.846 252.77 126.699 253.578 128.781C255.202 132.963 255.111 137.403 254.147 141.109C253.164 144.851 251.319 147.869 249.511 150.125C247.693 152.391 245.913 153.941 244.646 154.941C244.012 155.436 243.498 155.803 243.14 156.041C242.801 156.252 242.608 156.362 242.599 156.353Z" fill="#455A64"/>
</svg>
