<svg width="18" height="19" viewBox="0 0 18 19" fill="none" xmlns="http://www.w3.org/2000/svg">
<path d="M8.97163 17.9571C7.54516 17.9597 6.14243 17.592 4.90063 16.8901C4.84907 16.8521 4.78669 16.8316 4.72263 16.8316C4.65857 16.8316 4.59619 16.8521 4.54463 16.8901L2.96463 17.9171L3.28063 15.8621C3.28359 15.7453 3.2409 15.6319 3.16163 15.5461C1.80917 14.1965 0.966858 12.4195 0.778399 10.5181C0.58994 8.61683 1.06701 6.70903 2.12822 5.1202C3.18942 3.53138 4.76902 2.35998 6.59753 1.80583C8.42604 1.25169 10.3902 1.34915 12.1549 2.08157C13.9195 2.81399 15.3754 4.136 16.2741 5.82207C17.1729 7.50813 17.4587 9.45379 17.083 11.3271C16.7073 13.2004 15.6932 14.8854 14.2138 16.0944C12.7343 17.3035 10.8813 17.9618 8.97063 17.9571H8.97163ZM8.97163 0.726074C7.20917 0.725951 5.48571 1.24498 4.01642 2.21837C2.54714 3.19176 1.39713 4.57638 0.709959 6.19936C0.0227907 7.82235 -0.171088 9.61179 0.152529 11.3443C0.476145 13.0768 1.30292 14.6756 2.52963 15.9411L2.17363 18.5891C2.16286 18.6337 2.16164 18.6802 2.17007 18.7253C2.1785 18.7705 2.19637 18.8134 2.22253 18.8511C2.24868 18.8889 2.28252 18.9207 2.32183 18.9445C2.36114 18.9683 2.40504 18.9834 2.45063 18.9891C2.52963 18.9891 2.65063 18.9891 2.68763 18.9491L4.74263 17.6051C6.8446 18.7214 9.30393 18.9569 11.5796 18.26C13.8553 17.563 15.7608 15.9905 16.8771 13.8886C17.9934 11.7866 18.229 9.32727 17.532 7.05161C16.835 4.77595 15.2626 2.87037 13.1606 1.75407C11.8666 1.08121 10.4301 0.72867 8.97163 0.726074Z" fill="black"/>
<path d="M10.632 14.1631H7.63204V13.6101H7.94804C7.99486 13.6104 8.04127 13.6014 8.08459 13.5836C8.1279 13.5658 8.16725 13.5396 8.20036 13.5065C8.23347 13.4733 8.25968 13.434 8.27748 13.3907C8.29527 13.3474 8.3043 13.301 8.30404 13.2541V8.90614C8.3043 8.85931 8.29527 8.8129 8.27748 8.76959C8.25968 8.72628 8.23347 8.68693 8.20036 8.65382C8.16725 8.62071 8.1279 8.59449 8.08459 8.5767C8.04127 8.5589 7.99486 8.54987 7.94804 8.55014H7.63204V7.99714H9.95704V13.2141C9.95677 13.261 9.9658 13.3074 9.98359 13.3507C10.0014 13.394 10.0276 13.4333 10.0607 13.4665C10.0938 13.4996 10.1332 13.5258 10.1765 13.5436C10.2198 13.5614 10.2662 13.5704 10.313 13.5701H10.59L10.63 14.1631H10.632ZM10.988 12.8631H10.711V7.64214C10.7113 7.59548 10.7023 7.54923 10.6847 7.50605C10.667 7.46287 10.641 7.42361 10.6081 7.39053C10.5752 7.35744 10.536 7.33119 10.493 7.31327C10.4499 7.29536 10.4037 7.28614 10.357 7.28614H7.31304C7.26621 7.28587 7.2198 7.2949 7.17649 7.3127C7.13318 7.33049 7.09383 7.35671 7.06071 7.38982C7.0276 7.42293 7.00139 7.46228 6.98359 7.50559C6.9658 7.5489 6.95677 7.59531 6.95704 7.64214V8.90614C6.95677 8.95296 6.9658 8.99937 6.98359 9.04269C7.00139 9.086 7.0276 9.12535 7.06071 9.15846C7.09383 9.19157 7.13318 9.21778 7.17649 9.23558C7.2198 9.25338 7.26621 9.2624 7.31304 9.26214H7.62904V12.8621H7.31304C7.26621 12.8619 7.2198 12.8709 7.17649 12.8887C7.13318 12.9065 7.09383 12.9327 7.06071 12.9658C7.0276 12.9989 7.00139 13.0383 6.98359 13.0816C6.9658 13.1249 6.95677 13.1713 6.95704 13.2181V14.4831C6.95677 14.53 6.9658 14.5764 6.98359 14.6197C7.00139 14.663 7.0276 14.7023 7.06071 14.7355C7.09383 14.7686 7.13318 14.7948 7.17649 14.8126C7.2198 14.8304 7.26621 14.8394 7.31304 14.8391H11.028C11.0749 14.8394 11.1213 14.8304 11.1646 14.8126C11.2079 14.7948 11.2472 14.7686 11.2804 14.7355C11.3135 14.7023 11.3397 14.663 11.3575 14.6197C11.3753 14.5764 11.3843 14.53 11.384 14.4831V13.2141C11.3692 13.1175 11.3211 13.0291 11.2481 12.9641C11.1751 12.8991 11.0817 12.8617 10.984 12.8581L10.988 12.8631Z" fill="black"/>
<path d="M8.97177 4.56016C9.12802 4.56016 9.28075 4.60649 9.41067 4.6933C9.54058 4.78011 9.64184 4.90349 9.70163 5.04784C9.76143 5.19219 9.77707 5.35104 9.74659 5.50428C9.71611 5.65753 9.64087 5.79829 9.53038 5.90878C9.4199 6.01926 9.27913 6.0945 9.12589 6.12498C8.97265 6.15546 8.8138 6.13982 8.66945 6.08003C8.52509 6.02023 8.40171 5.91898 8.31491 5.78906C8.2281 5.65915 8.18177 5.50641 8.18177 5.35016C8.18256 5.14088 8.26604 4.9404 8.41403 4.79242C8.56201 4.64444 8.76249 4.56095 8.97177 4.56016ZM8.97177 6.81316C9.26088 6.81316 9.54351 6.72744 9.78391 6.56684C10.0243 6.40624 10.2117 6.17796 10.3224 5.91087C10.4331 5.64379 10.4621 5.34988 10.4057 5.06631C10.3494 4.78273 10.2103 4.52223 10.0059 4.31772C9.80155 4.11322 9.54114 3.9739 9.2576 3.91737C8.97407 3.86085 8.68014 3.88966 8.41298 4.00016C8.14582 4.11066 7.91741 4.2979 7.75665 4.53819C7.59588 4.77848 7.50997 5.06105 7.50977 5.35016C7.50937 5.54226 7.54692 5.73255 7.62025 5.91011C7.69358 6.08767 7.80126 6.24899 7.9371 6.38483C8.07293 6.52067 8.23426 6.62835 8.41182 6.70168C8.58938 6.77501 8.77966 6.81256 8.97177 6.81216V6.81316Z" fill="black"/>
</svg>
